# xmcd CD database file
#
# Track frame offsets:
#	150
#	22142
#	41703
#	61480
#	85528
#	107640
#	131778
#	150714
#	175193
#	191696
#
# Disc length: 3107 seconds
#
# Revision: 0
# Processed by: cddbd v1.4PL0 Copyright (c) Steve Scherf et al.
# Submitted via: CDex 1.40Beta8
#
DISCID=840c210a
DTITLE=Vidar Busk - Venus Texas
DYEAR=1900
DGENRE=Blues
TTITLE0=Venus, Texas
TTITLE1=Drive on
TTITLE2=Goodnight moon
TTITLE3=Bubblin'
TTITLE4=Spooky
TTITLE5=Heart broke
TTITLE6=Way down south
TTITLE7=U&I
TTITLE8=Jam rap
TTITLE9=If I had the power
EXTD=ID3G: 0
EXTT0=
EXTT1=
EXTT2=
EXTT3=
EXTT4=
EXTT5=
EXTT6=
EXTT7=
EXTT8=
EXTT9=
PLAYORDER=
